<svg id="Layer_1" height="512" viewBox="0 0 512 512" width="512" xmlns="http://www.w3.org/2000/svg" data-name="Layer 1"><path d="m494 37.631v66.75h-476v-66.75a21.633 21.633 0 0 1 21.64-21.631h432.72a21.633 21.633 0 0 1 21.64 21.631z" fill="#6d7486"/><path d="m18 104.381v291.85a21.642 21.642 0 0 0 21.64 21.64h432.72a21.642 21.642 0 0 0 21.64-21.64v-291.85z" fill="#e2e4ed"/><path d="m69.64 16h-30a21.633 21.633 0 0 0 -21.64 21.631v66.75h30v-66.75a21.633 21.633 0 0 1 21.64-21.631z" fill="#b0b5ca"/><path d="m48 396.231v-291.85h-30v291.85a21.642 21.642 0 0 0 21.64 21.64h30a21.642 21.642 0 0 1 -21.64-21.64z" fill="#e2e4ed"/><path d="m183.47 42.441a17 17 0 1 1 -17 16.99 17 17 0 0 1 17-16.99z" fill="#50dd5a"/><path d="m122.83 42.441a17 17 0 1 1 -17 16.99 17 17 0 0 1 17-16.99z" fill="#fe8700"/><path d="m62.2 42.441a17 17 0 1 1 -17 16.99 17 17 0 0 1 17-16.99z" fill="#f43b3b"/><path d="m426.34 375.41a15.757 15.757 0 0 0 -15.76 15.77v-9.409a15.633 15.633 0 0 0 -31.03-2.711v-7.25a14.95 14.95 0 1 0 -29.9 0h-.26v-99.179a17.285 17.285 0 1 0 -34.57 0v138.919l-11.38-16.49a45.518 45.518 0 0 0 -37.44-19.65 6.047 6.047 0 0 0 -6.04 6.04 5.949 5.949 0 0 0 .53 2.471l1.01 2.259a204.685 204.685 0 0 1 11.6 33.341l12.74 50.039a37.081 37.081 0 0 0 35.52 26.44h83.65a37.094 37.094 0 0 0 37.09-37.11v-67.71a15.767 15.767 0 0 0 -15.76-15.77z" fill="#efada3"/><path d="m137.5 233.13h-57.425a8.752 8.752 0 0 1 -8.743-8.74v-57.35a8.751 8.751 0 0 1 8.743-8.74h28.712a6 6 0 0 1 0 12h-25.455v50.83h50.911v-16.154a6 6 0 0 1 12 0v19.414a8.752 8.752 0 0 1 -8.743 8.74z" fill="#6d7486"/><path d="m114.475 203.1a9.573 9.573 0 0 1 -6.039-2.166l-11.036-8.934a6 6 0 1 1 7.548-9.329l9.184 7.431 28.619-34.393a6 6 0 1 1 9.224 7.676l-30.584 36.754-.241.231a9.6 9.6 0 0 1 -6.675 2.73z" fill="#49c160"/><path d="m442.1 174.482h-234.125a6 6 0 0 1 0-12h234.125a6 6 0 0 1 0 12z" fill="#9fa9b7"/><path d="m442.1 224.193h-234.125a6 6 0 0 1 0-12h234.125a6 6 0 0 1 0 12z" fill="#9fa9b7"/><path d="m137.5 360.3h-57.425a8.751 8.751 0 0 1 -8.743-8.74v-57.35a8.752 8.752 0 0 1 8.743-8.74h28.712a6 6 0 0 1 0 12h-25.455v50.83h50.911v-16.156a6 6 0 0 1 12 0v19.414a8.752 8.752 0 0 1 -8.743 8.742z" fill="#6d7486"/><path d="m114.475 330.264a9.573 9.573 0 0 1 -6.039-2.166l-11.036-8.932a6 6 0 1 1 7.548-9.329l9.184 7.431 28.619-34.393a6 6 0 0 1 9.224 7.676l-30.584 36.754-.241.232a9.6 9.6 0 0 1 -6.675 2.727z" fill="#49c160"/><g fill="#9fa9b7"><path d="m442.1 301.65h-48.748a6 6 0 0 1 0-12h48.748a6 6 0 1 1 0 12z"/><path d="m284.014 301.65h-76.039a6 6 0 0 1 0-12h76.039a6 6 0 0 1 0 12z"/><path d="m228.468 351.361h-20.493a6 6 0 0 1 0-12h20.493a6 6 0 0 1 0 12z"/><path d="m467.933 64.3h-194.933a6 6 0 1 1 0-12h194.933a6 6 0 0 1 0 12z"/></g></svg>